# xmcd
#
# Track frame offsets:
#	150
#	25075
#	46687
#	68622
#	84295
#	107032
#	125062
#	145375
#	166270
#	188615
#	212225
#	233422
#	256100
#	278590
#	300322
#
# Disc length: 4258 seconds
#
# Revision: 1
# Processed by: cddbd v1.4PL0 Copyright (c) Steve Scherf et al.
# Submitted via: EasyCDDAExtractor 4.6.0.1
#
DISCID=b810a00f
DTITLE=Boyz II Men - Evolution
DYEAR=1997
DGENRE=R&B
TTITLE0=doin' just fine
TTITLE1=never
TTITLE2=seasons of loneliness
TTITLE3=girl in the life magazine
TTITLE4=a song for mama
TTITLE5=can you stand the rain
TTITLE6=can't let her go
TTITLE7=baby c'mon
TTITLE8=come on
TTITLE9=all night long
TTITLE10=human II, don't turn your back on me
TTITLE11=to the limit
TTITLE12=dear god
TTITLE13=just hold on
TTITLE14=can't let her go [original mix]
EXTD=
EXTT0=
EXTT1=
EXTT2=
EXTT3=
EXTT4=
EXTT5=
EXTT6=
EXTT7=
EXTT8=
EXTT9=
EXTT10=
EXTT11=
EXTT12=
EXTT13=
EXTT14=
PLAYORDER=
